<svg width="1914" height="619" viewBox="0 0 1914 619" fill="none" xmlns="http://www.w3.org/2000/svg">
<path fill-rule="evenodd" clip-rule="evenodd" d="M1200.29 507H1552V592.421L1529.76 618H1185V507H1185L1185 486.475L1200.29 507Z" fill="#FDEE0A"/>
<mask id="path-2-inside-1_3444_1506" fill="white">
<path d="M1185 618.064H1292.66V506.812H1185V618.064Z"/>
</mask>
<path d="M1185 618.064H1292.66V506.812H1185V618.064Z" fill="black"/>
<path d="M1185 618.064V622.02H1181.04V618.064H1185ZM1185 506.812H1181.04V502.855H1185V506.812ZM1185 614.108H1292.66V622.02H1185V614.108ZM1292.66 510.768H1185V502.855H1292.66V510.768ZM1188.96 506.812V618.064H1181.04V506.812H1188.96Z" fill="#FDEE0A" mask="url(#path-2-inside-1_3444_1506)"/>
<path d="M1255.55 575.361H1260.23V587.868H1255.55V602.768H1243.26V587.868H1224.45V575.361L1241.63 526.638H1244.68H1255.55V575.361ZM1237.17 575.361H1243.26L1243.48 557.525L1237.17 575.361Z" fill="#FDEE0A"/>
<path d="M1315.04 545.315H1320.28V552.635C1320.28 555.515 1317.92 557.875 1315.04 557.875H1312.92C1310.04 557.875 1307.72 555.515 1307.72 552.635V534.355C1307.72 531.475 1310.04 529.155 1312.92 529.155H1315.04C1317.92 529.155 1320.28 531.475 1320.28 534.355V540.355H1315.04V535.155C1315.04 534.595 1314.6 534.115 1314.04 534.115H1313.92C1313.36 534.115 1312.92 534.595 1312.92 535.155V551.835C1312.92 552.395 1313.36 552.875 1313.92 552.875H1314.04C1314.6 552.875 1315.04 552.395 1315.04 551.835V545.315ZM1321.78 534.355C1321.78 531.475 1324.1 529.155 1326.98 529.155H1329.1C1331.98 529.155 1334.34 531.475 1334.34 534.355V552.635C1334.34 555.515 1331.98 557.875 1329.1 557.875H1326.98C1324.1 557.875 1321.78 555.515 1321.78 552.635V534.355ZM1326.98 551.835C1326.98 552.395 1327.42 552.875 1327.98 552.875H1328.1C1328.66 552.875 1329.1 552.395 1329.1 551.835V535.155C1329.1 534.595 1328.66 534.115 1328.1 534.115H1327.98C1327.42 534.115 1326.98 534.595 1326.98 535.155V551.835ZM1343.37 529.515H1348.29V557.515H1343.37L1340.69 547.155V557.515H1335.81V529.515H1340.33L1340.69 530.795L1343.37 540.995V529.515ZM1357.31 529.515H1362.23V557.515H1357.31L1354.63 547.155V557.515H1349.75V529.515H1354.27L1354.63 530.795L1357.31 540.995V529.515ZM1374.22 534.475H1368.9V540.995H1372.98V545.995H1368.9V552.515H1374.22V557.515H1363.7V529.515H1374.22V534.475ZM1382.81 545.315H1388.05V552.635C1388.05 555.515 1385.69 557.875 1382.81 557.875H1380.69C1377.81 557.875 1375.49 555.515 1375.49 552.635V534.355C1375.49 531.475 1377.81 529.155 1380.69 529.155H1382.81C1385.69 529.155 1388.05 531.475 1388.05 534.355V540.355H1382.81V535.155C1382.81 534.595 1382.37 534.115 1381.81 534.115H1381.69C1381.13 534.115 1380.69 534.595 1380.69 535.155V551.835C1380.69 552.395 1381.13 552.875 1381.69 552.875H1381.81C1382.37 552.875 1382.81 552.395 1382.81 551.835V545.315ZM1401.48 529.515V534.475H1397.96V557.515H1392.76V534.475H1389.24V529.515H1401.48ZM1414.29 529.515H1419.21L1414.97 547.075H1414.93V557.515H1409.73V546.635L1405.61 529.515H1410.49L1411.29 533.555L1412.41 539.155L1413.49 533.555L1414.29 529.515ZM1419.56 534.355C1419.56 531.475 1421.88 529.155 1424.76 529.155H1426.88C1429.76 529.155 1432.12 531.475 1432.12 534.355V552.635C1432.12 555.515 1429.76 557.875 1426.88 557.875H1424.76C1421.88 557.875 1419.56 555.515 1419.56 552.635V534.355ZM1424.76 551.835C1424.76 552.395 1425.2 552.875 1425.76 552.875H1425.88C1426.44 552.875 1426.88 552.395 1426.88 551.835V535.155C1426.88 534.595 1426.44 534.115 1425.88 534.115H1425.76C1425.2 534.115 1424.76 534.595 1424.76 535.155V551.835ZM1440.9 529.515H1446.14V552.595C1446.14 555.475 1443.78 557.835 1440.9 557.835H1438.78C1435.9 557.835 1433.58 555.475 1433.58 552.595V529.515H1438.78V551.795C1438.78 552.395 1439.22 552.835 1439.78 552.835H1439.9C1440.46 552.835 1440.9 552.395 1440.9 551.795V529.515ZM1457.08 543.595C1458.76 543.595 1460.16 544.995 1460.16 546.715V557.475H1454.96V547.675C1454.96 546.795 1454.24 546.115 1453.36 546.115H1452.8V557.475H1447.6V529.515H1456.04C1458.32 529.515 1460.16 531.315 1460.16 533.595V540.435C1460.16 542.195 1458.72 543.595 1457 543.595H1457.08ZM1454.96 535.515C1454.96 534.955 1454.48 534.475 1453.92 534.475H1452.8V541.115H1453.72C1454.4 541.115 1454.96 540.555 1454.96 539.875V535.515ZM1307.72 564.515H1314.64C1318.72 564.515 1320.28 566.875 1320.28 569.835V587.155C1320.28 590.115 1318.72 592.515 1314.64 592.515H1307.72V564.515ZM1312.92 587.515H1314.08C1314.64 587.515 1315.08 587.035 1315.08 586.475V570.515C1315.08 569.955 1314.64 569.475 1314.08 569.475H1312.92V587.515ZM1326.98 592.515H1321.78V564.515H1326.98V592.515ZM1341.02 569.355V573.955H1335.78V570.155C1335.78 569.595 1335.34 569.115 1334.78 569.115H1334.66C1334.1 569.115 1333.66 569.595 1333.66 570.155V586.835C1333.66 587.395 1334.1 587.875 1334.66 587.875H1334.78C1335.34 587.875 1335.78 587.395 1335.78 586.835V582.595H1334.62V577.595H1341.02V587.635C1341.02 590.515 1338.66 592.875 1335.78 592.875H1333.66C1330.78 592.875 1328.46 590.515 1328.46 587.635V569.355C1328.46 566.475 1330.78 564.155 1333.66 564.155H1335.78C1338.66 564.155 1341.02 566.475 1341.02 569.355ZM1347.69 592.515H1342.49V564.515H1347.69V592.515ZM1361.41 564.515V569.475H1357.89V592.515H1352.69V569.475H1349.17V564.515H1361.41ZM1364.43 592.515H1359.91L1363.71 564.515H1369.91L1373.71 592.515H1369.19L1368.71 588.875H1364.91L1364.43 592.515ZM1366.79 574.955L1365.51 584.555H1368.11L1366.79 574.955ZM1379.8 587.515H1385.12V592.515H1374.6V564.515H1379.8V587.515ZM1394.44 592.515H1389.24V564.515H1394.44V592.515ZM1395.92 564.515H1402.84C1406.92 564.515 1408.48 566.875 1408.48 569.835V587.155C1408.48 590.115 1406.92 592.515 1402.84 592.515H1395.92V564.515ZM1401.12 587.515H1402.28C1402.84 587.515 1403.28 587.035 1403.28 586.475V570.515C1403.28 569.955 1402.84 569.475 1402.28 569.475H1401.12V587.515ZM1420.51 569.475H1415.19V575.995H1419.27V580.995H1415.19V587.515H1420.51V592.515H1409.99V564.515H1420.51V569.475ZM1429.58 564.515H1434.5V592.515H1429.58L1426.9 582.155V592.515H1422.02V564.515H1426.54L1426.9 565.795L1429.58 575.995V564.515ZM1448.2 564.515V569.475H1444.68V592.515H1439.48V569.475H1435.96V564.515H1448.2ZM1454.91 592.515H1449.71V564.515H1454.91V592.515ZM1468.63 564.515V569.475H1465.11V592.515H1459.91V569.475H1456.39V564.515H1468.63ZM1478.28 564.515H1483.2L1478.96 582.075H1478.92V592.515H1473.72V581.635L1469.6 564.515H1474.48L1475.28 568.555L1476.4 574.155L1477.48 568.555L1478.28 564.515Z" fill="black"/>
<path fill-rule="evenodd" clip-rule="evenodd" d="M1352 0H1731V93.5519L1731 93.5538L1731 148L1706.56 125H1352V0Z" fill="#FDEE0A"/>
<mask id="path-7-inside-2_3444_1506" fill="white">
<path d="M1464 0H1356.34V125.127H1464V0Z"/>
</mask>
<path d="M1464 0H1356.34V125.127H1464V0Z" fill="black"/>
<path d="M1464 0V-4.03636H1468.04V0H1464ZM1464 125.127H1468.04V129.164H1464V125.127ZM1464 4.03636H1356.34V-4.03636H1464V4.03636ZM1356.34 121.091H1464V129.164H1356.34V121.091ZM1459.96 125.127V0H1468.04V125.127H1459.96Z" fill="#FDEE0A" mask="url(#path-7-inside-2_3444_1506)"/>
<path d="M1428.17 39.0353H1407.64V43.3627V46.8024V47.2462V50.0202C1407.64 50.0202 1408.86 47.2462 1415.3 47.2462H1416.08C1422.73 47.2462 1428.17 52.6832 1428.17 59.3407V69.7708H1428.06V90.0762C1428.06 97.1775 1421.62 103.946 1413.64 103.946H1407.75C1398.66 103.946 1393.22 95.846 1393.22 90.0762V78.5365H1407.64V87.1913C1407.64 88.7447 1408.98 90.0762 1410.53 90.0762H1410.75C1412.3 90.0762 1413.64 88.7447 1413.64 87.1913V60.8941C1413.64 60.6722 1413.52 60.5613 1413.52 60.3393C1413.19 59.1188 1412.08 58.2311 1410.75 58.2311H1410.53C1408.98 58.2311 1407.64 59.4517 1407.64 61.116V65.7763V69.4379H1393.22V45.249V43.3627V25.1655H1428.17V39.0353Z" fill="#FDEE0A"/>
<path d="M1474.72 30.04H1481.64C1485.72 30.04 1487.28 32.4 1487.28 35.36V52.68C1487.28 55.64 1485.72 58.04 1481.64 58.04H1474.72V30.04ZM1479.92 53.04H1481.08C1481.64 53.04 1482.08 52.56 1482.08 52V36.04C1482.08 35.48 1481.64 35 1481.08 35H1479.92V53.04ZM1493.98 58.04H1488.78V30.04H1493.98V58.04ZM1503.79 30.04H1508.75L1504.79 58.04H1499.11L1495.19 30.04H1500.11L1501.95 43L1503.79 30.04ZM1520.59 35H1515.27V41.52H1519.35V46.52H1515.27V53.04H1520.59V58.04H1510.07V30.04H1520.59V35ZM1529.92 58.04H1524.72V30.04H1529.92V58.04ZM1538.96 30.04H1543.88V58.04H1538.96L1536.28 47.68V58.04H1531.4V30.04H1535.92L1536.28 31.32L1538.96 41.52V30.04ZM1557.59 30.04V35H1554.07V58.04H1548.87V35H1545.35V30.04H1557.59ZM1558.9 34.88C1558.9 32 1561.22 29.68 1564.1 29.68H1566.22C1569.1 29.68 1571.46 32 1571.46 34.88V53.16C1571.46 56.04 1569.1 58.4 1566.22 58.4H1564.1C1561.22 58.4 1558.9 56.04 1558.9 53.16V34.88ZM1564.1 52.36C1564.1 52.92 1564.54 53.4 1565.1 53.4H1565.22C1565.78 53.4 1566.22 52.92 1566.22 52.36V35.68C1566.22 35.12 1565.78 34.64 1565.22 34.64H1565.1C1564.54 34.64 1564.1 35.12 1564.1 35.68V52.36ZM1587.78 30.04V35H1584.26V58.04H1579.06V35H1575.54V30.04H1587.78ZM1596.57 30.04H1601.81V58.04H1596.57V46.52H1594.49V58.04H1589.29V30.04H1594.49V41.52H1596.57V30.04ZM1613.83 35H1608.51V41.52H1612.59V46.52H1608.51V53.04H1613.83V58.04H1603.31V30.04H1613.83V35ZM1617.96 30.04H1624.88C1628.96 30.04 1630.52 32.4 1630.52 35.36V52.68C1630.52 55.64 1628.96 58.04 1624.88 58.04H1617.96V30.04ZM1623.16 53.04H1624.32C1624.88 53.04 1625.32 52.56 1625.32 52V36.04C1625.32 35.48 1624.88 35 1624.32 35H1623.16V53.04ZM1637.22 58.04H1632.02V30.04H1637.22V58.04ZM1651.26 34.88V39.48H1646.02V35.68C1646.02 35.12 1645.58 34.64 1645.02 34.64H1644.9C1644.34 34.64 1643.9 35.12 1643.9 35.68V52.36C1643.9 52.92 1644.34 53.4 1644.9 53.4H1645.02C1645.58 53.4 1646.02 52.92 1646.02 52.36V48.12H1644.86V43.12H1651.26V53.16C1651.26 56.04 1648.9 58.4 1646.02 58.4H1643.9C1641.02 58.4 1638.7 56.04 1638.7 53.16V34.88C1638.7 32 1641.02 29.68 1643.9 29.68H1646.02C1648.9 29.68 1651.26 32 1651.26 34.88ZM1657.93 58.04H1652.73V30.04H1657.93V58.04ZM1671.65 30.04V35H1668.13V58.04H1662.93V35H1659.41V30.04H1671.65ZM1674.67 58.04H1670.15L1673.95 30.04H1680.15L1683.95 58.04H1679.43L1678.95 54.4H1675.15L1674.67 58.04ZM1677.03 40.48L1675.75 50.08H1678.35L1677.03 40.48ZM1690.04 53.04H1695.36V58.04H1684.84V30.04H1690.04V53.04ZM1479.24 93.04H1474.72L1478.52 65.04H1484.72L1488.52 93.04H1484L1483.52 89.4H1479.72L1479.24 93.04ZM1481.6 75.48L1480.32 85.08H1482.92L1481.6 75.48ZM1499.08 79.12C1500.76 79.12 1502.16 80.52 1502.16 82.24V93H1496.96V83.2C1496.96 82.32 1496.24 81.64 1495.36 81.64H1494.8V93H1489.6V65.04H1498.04C1500.32 65.04 1502.16 66.84 1502.16 69.12V75.96C1502.16 77.72 1500.72 79.12 1499 79.12H1499.08ZM1496.96 71.04C1496.96 70.48 1496.48 70 1495.92 70H1494.8V76.64H1495.72C1496.4 76.64 1496.96 76.08 1496.96 75.4V71.04ZM1514.19 70H1508.87V76.52H1512.95V81.52H1508.87V88.04H1514.19V93.04H1503.67V65.04H1514.19V70ZM1523.26 65.04H1528.18V93.04H1523.26L1520.58 82.68V93.04H1515.7V65.04H1520.22L1520.58 66.32L1523.26 76.52V65.04ZM1533.77 93.04H1529.25L1533.05 65.04H1539.25L1543.05 93.04H1538.53L1538.05 89.4H1534.25L1533.77 93.04ZM1536.13 75.48L1534.85 85.08H1537.45L1536.13 75.48Z" fill="black"/>
<path fill-rule="evenodd" clip-rule="evenodd" d="M100 113H519V198.192L495.696 225H117.587L100.001 248.602L100.001 225H100V113Z" fill="#FDEE0A"/>
<mask id="path-12-inside-3_3444_1506" fill="white">
<path d="M100 113H208.321V224.932H100V113Z"/>
</mask>
<path d="M100 113H208.321V224.932H100V113Z" fill="black"/>
<path d="M100 113V109.389H96.3893V113H100ZM100 224.932H96.3893V228.542H100V224.932ZM100 116.611H208.321V109.389H100V116.611ZM208.321 221.321H100V228.542H208.321V221.321ZM103.611 224.932V113H96.3893V224.932H103.611Z" fill="#FDEE0A" mask="url(#path-12-inside-3_3444_1506)"/>
<path d="M139.995 135.37H160.74V204.85H147.836V146.884H139.995V135.37Z" fill="#FDEE0A"/>
<path d="M232.2 169.12C233.88 169.12 235.28 170.52 235.28 172.24V183H230.08V173.2C230.08 172.32 229.36 171.64 228.48 171.64H227.92V183H222.72V155.04H231.16C233.44 155.04 235.28 156.84 235.28 159.12V165.96C235.28 167.72 233.84 169.12 232.12 169.12H232.2ZM230.08 161.04C230.08 160.48 229.6 160 229.04 160H227.92V166.64H228.84C229.52 166.64 230.08 166.08 230.08 165.4V161.04ZM247.303 160H241.983V166.52H246.062V171.52H241.983V178.04H247.303V183.04H236.783V155.04H247.303V160ZM261.139 159.88V164.48H255.899V160.68C255.899 160.12 255.459 159.64 254.899 159.64H254.779C254.219 159.64 253.779 160.12 253.779 160.68V177.36C253.779 177.92 254.219 178.4 254.779 178.4H254.899C255.459 178.4 255.899 177.92 255.899 177.36V173.12H254.739V168.12H261.139V178.16C261.139 181.04 258.779 183.4 255.899 183.4H253.779C250.899 183.4 248.579 181.04 248.579 178.16V159.88C248.579 157 250.899 154.68 253.779 154.68H255.899C258.779 154.68 261.139 157 261.139 159.88ZM267.803 183.04H262.603V155.04H267.803V183.04ZM281.843 164.16H276.643V160.68C276.643 160.12 276.163 159.64 275.603 159.64H275.523C274.923 159.64 274.483 160.12 274.483 160.68V163.52C274.483 164.32 274.803 164.76 275.043 165L275.283 165.2L279.763 168.64C279.763 168.64 281.843 170 281.843 173.2V178.16C281.843 181.04 279.483 183.4 276.603 183.4H274.483C271.603 183.4 269.283 181.04 269.283 178.16V173.2H274.483V177.36C274.483 177.92 274.923 178.4 275.523 178.4H275.603C276.163 178.4 276.643 177.92 276.643 177.36V173.72C276.603 173.56 276.563 172.88 276.003 172.44L271.083 168.64C269.043 167.08 269.283 164.84 269.283 164.84V159.88C269.283 157 271.603 154.68 274.483 154.68H276.603C279.483 154.68 281.843 157 281.843 159.88V164.16ZM295.273 155.04V160H291.753V183.04H286.553V160H283.033V155.04H295.273ZM306.263 169.12C307.943 169.12 309.343 170.52 309.343 172.24V183H304.143V173.2C304.143 172.32 303.423 171.64 302.543 171.64H301.983V183H296.783V155.04H305.223C307.503 155.04 309.343 156.84 309.343 159.12V165.96C309.343 167.72 307.903 169.12 306.183 169.12H306.263ZM304.143 161.04C304.143 160.48 303.663 160 303.103 160H301.983V166.64H302.903C303.583 166.64 304.143 166.08 304.143 165.4V161.04ZM315.053 183.04H310.533L314.333 155.04H320.533L324.333 183.04H319.812L319.333 179.4H315.533L315.053 183.04ZM317.413 165.48L316.133 175.08H318.733L317.413 165.48ZM335.038 155.04V160H331.518V183.04H326.318V160H322.798V155.04H335.038ZM341.748 183.04H336.548V155.04H341.748V183.04ZM343.228 159.88C343.228 157 345.548 154.68 348.428 154.68H350.548C353.428 154.68 355.788 157 355.788 159.88V178.16C355.788 181.04 353.428 183.4 350.548 183.4H348.428C345.548 183.4 343.228 181.04 343.228 178.16V159.88ZM348.428 177.36C348.428 177.92 348.868 178.4 349.428 178.4H349.548C350.108 178.4 350.548 177.92 350.548 177.36V160.68C350.548 160.12 350.108 159.64 349.548 159.64H349.428C348.868 159.64 348.428 160.12 348.428 160.68V177.36ZM364.811 155.04H369.731V183.04H364.811L362.131 172.68V183.04H357.251V155.04H361.771L362.131 156.32L364.811 166.52V155.04Z" fill="black"/>
<path fill-rule="evenodd" clip-rule="evenodd" d="M506.092 439.478L506.092 413L486.483 439.478H70.6577V551.41H481.693L506.098 523.164V439.478H506.092Z" fill="#FDEE0A"/>
<mask id="path-17-inside-4_3444_1506" fill="white">
<path d="M182.309 439.479H74.6448V551.41H182.309V439.479Z"/>
</mask>
<path d="M182.309 439.479H74.6448V551.41H182.309V439.479Z" fill="black"/>
<path d="M182.309 439.479V435.868H185.919V439.479H182.309ZM182.309 551.41H185.919V555.021H182.309V551.41ZM182.309 443.089H74.6448V435.868H182.309V443.089ZM74.6448 547.8H182.309V555.021H74.6448V547.8ZM178.698 551.41V439.479H185.919V551.41H178.698Z" fill="#FDEE0A" mask="url(#path-17-inside-4_3444_1506)"/>
<path d="M137.62 495.894C137.521 496.191 137.421 496.39 137.322 496.688C133.749 504.43 130.374 512.271 126.801 519.914H141.293V531.428H121.243H112.508V519.914C113.302 518.226 114.096 516.44 114.989 514.752C117.868 508.499 120.846 502.147 123.724 495.894C124.518 494.206 125.312 492.519 126.106 490.831C128.29 485.968 128.389 481.203 128.389 475.943C128.389 475.248 127.992 474.553 127.496 474.057C127.297 473.958 127.099 473.858 126.9 473.66C126.602 473.561 126.205 473.461 125.808 473.461H125.61C124.22 473.461 123.029 474.553 123.029 475.943V484.677H110.126V474.057C110.126 466.91 115.883 461.054 123.029 461.054H128.29C135.536 461.054 141.293 466.91 141.293 474.057C141.293 474.057 141.293 487.357 137.62 495.894Z" fill="#FDEE0A"/>
<path d="M197.76 464.04H203V487.2C203 489.88 201.08 492 196.88 492H193.72V487.04H196.76C197.32 487.04 197.76 486.56 197.76 486V464.04ZM204.501 468.88C204.501 466 206.821 463.68 209.701 463.68H211.821C214.701 463.68 217.061 466 217.061 468.88V487.16C217.061 490.04 214.701 492.4 211.821 492.4H209.701C206.821 492.4 204.501 490.04 204.501 487.16V468.88ZM209.701 486.36C209.701 486.92 210.141 487.4 210.701 487.4H210.821C211.381 487.4 211.821 486.92 211.821 486.36V469.68C211.821 469.12 211.381 468.64 210.821 468.64H210.701C210.141 468.64 209.701 469.12 209.701 469.68V486.36ZM223.725 492.04H218.525V464.04H223.725V492.04ZM232.764 464.04H237.684V492.04H232.764L230.084 481.68V492.04H225.204V464.04H229.724L230.084 465.32L232.764 475.52V464.04ZM254.007 464.04V469H250.487V492.04H245.287V469H241.767V464.04H254.007ZM262.797 464.04H268.037V492.04H262.797V480.52H260.717V492.04H255.517V464.04H260.717V475.52H262.797V464.04ZM280.06 469H274.74V475.52H278.82V480.52H274.74V487.04H280.06V492.04H269.54V464.04H280.06V469ZM296.749 468.88V473.48H291.509V469.68C291.509 469.12 291.069 468.64 290.509 468.64H290.389C289.829 468.64 289.389 469.12 289.389 469.68V486.36C289.389 486.92 289.829 487.4 290.389 487.4H290.509C291.069 487.4 291.509 486.92 291.509 486.36V482.12H290.349V477.12H296.749V487.16C296.749 490.04 294.389 492.4 291.509 492.4H289.389C286.509 492.4 284.189 490.04 284.189 487.16V468.88C284.189 466 286.509 463.68 289.389 463.68H291.509C294.389 463.68 296.749 466 296.749 468.88ZM310.14 464.04V469H306.62V492.04H301.42V469H297.9V464.04H310.14ZM322.17 469H316.85V475.52H320.93V480.52H316.85V487.04H322.17V492.04H311.65V464.04H322.17V469ZM330.767 479.84H336.007V487.16C336.007 490.04 333.647 492.4 330.767 492.4H328.647C325.767 492.4 323.447 490.04 323.447 487.16V468.88C323.447 466 325.767 463.68 328.647 463.68H330.767C333.647 463.68 336.007 466 336.007 468.88V474.88H330.767V469.68C330.767 469.12 330.327 468.64 329.767 468.64H329.647C329.087 468.64 328.647 469.12 328.647 469.68V486.36C328.647 486.92 329.087 487.4 329.647 487.4H329.767C330.327 487.4 330.767 486.92 330.767 486.36V479.84ZM344.789 464.04H350.029V492.04H344.789V480.52H342.709V492.04H337.509V464.04H342.709V475.52H344.789V464.04ZM359.07 472V485.56C359.07 487.56 359.95 488.32 361.35 488.32C362.75 488.32 363.63 487.56 363.63 485.56V472H368.03V492H364.03V489.92C363.23 491.48 361.83 492.32 360.03 492.32C359.67 492.32 359.35 492.28 359.07 492.24V495.72H354.67V472H359.07ZM375.209 487.04H380.529V492.04H370.009V464.04H375.209V487.04ZM392.56 469H387.24V475.52H391.32V480.52H387.24V487.04H392.56V492.04H382.04V464.04H392.56V469ZM398.279 492.04H393.759L397.559 464.04H403.759L407.559 492.04H403.039L402.559 488.4H398.759L398.279 492.04ZM400.639 474.48L399.359 484.08H401.959L400.639 474.48ZM418.122 478.12C419.802 478.12 421.202 479.52 421.202 481.24V492H416.002V482.2C416.002 481.32 415.282 480.64 414.402 480.64H413.842V492H408.642V464.04H417.082C419.362 464.04 421.202 465.84 421.202 468.12V474.96C421.202 476.72 419.762 478.12 418.042 478.12H418.122ZM416.002 470.04C416.002 469.48 415.522 469 414.962 469H413.842V475.64H414.762C415.442 475.64 416.002 475.08 416.002 474.4V470.04ZM430.264 464.04H435.184V492.04H430.264L427.584 481.68V492.04H422.704V464.04H427.224L427.584 465.32L430.264 475.52V464.04ZM193.72 499.04H200.64C204.72 499.04 206.28 501.4 206.28 504.36V521.68C206.28 524.64 204.72 527.04 200.64 527.04H193.72V499.04ZM198.92 522.04H200.08C200.64 522.04 201.08 521.56 201.08 521V505.04C201.08 504.48 200.64 504 200.08 504H198.92V522.04ZM212.983 527.04H207.783V499.04H212.983V527.04ZM227.022 508.16H221.822V504.68C221.822 504.12 221.342 503.64 220.782 503.64H220.702C220.102 503.64 219.662 504.12 219.662 504.68V507.52C219.662 508.32 219.982 508.76 220.222 509L220.462 509.2L224.942 512.64C224.942 512.64 227.022 514 227.022 517.2V522.16C227.022 525.04 224.662 527.4 221.782 527.4H219.662C216.782 527.4 214.462 525.04 214.462 522.16V517.2H219.662V521.36C219.662 521.92 220.102 522.4 220.702 522.4H220.782C221.342 522.4 221.822 521.92 221.822 521.36V517.72C221.782 517.56 221.742 516.88 221.182 516.44L216.262 512.64C214.222 511.08 214.462 508.84 214.462 508.84V503.88C214.462 501 216.782 498.68 219.662 498.68H221.782C224.662 498.68 227.022 501 227.022 503.88V508.16ZM235.845 514.84H241.085V522.16C241.085 525.04 238.725 527.4 235.845 527.4H233.725C230.845 527.4 228.525 525.04 228.525 522.16V503.88C228.525 501 230.845 498.68 233.725 498.68H235.845C238.725 498.68 241.085 501 241.085 503.88V509.88H235.845V504.68C235.845 504.12 235.405 503.64 234.845 503.64H234.725C234.165 503.64 233.725 504.12 233.725 504.68V521.36C233.725 521.92 234.165 522.4 234.725 522.4H234.845C235.405 522.4 235.845 521.92 235.845 521.36V514.84ZM242.587 503.88C242.587 501 244.907 498.68 247.787 498.68H249.907C252.787 498.68 255.147 501 255.147 503.88V522.16C255.147 525.04 252.787 527.4 249.907 527.4H247.787C244.907 527.4 242.587 525.04 242.587 522.16V503.88ZM247.787 521.36C247.787 521.92 248.227 522.4 248.787 522.4H248.907C249.467 522.4 249.907 521.92 249.907 521.36V504.68C249.907 504.12 249.467 503.64 248.907 503.64H248.787C248.227 503.64 247.787 504.12 247.787 504.68V521.36ZM266.091 513.12C267.771 513.12 269.171 514.52 269.171 516.24V527H263.971V517.2C263.971 516.32 263.251 515.64 262.371 515.64H261.811V527H256.611V499.04H265.051C267.331 499.04 269.171 500.84 269.171 503.12V509.96C269.171 511.72 267.731 513.12 266.011 513.12H266.091ZM263.971 505.04C263.971 504.48 263.491 504 262.931 504H261.811V510.64H262.731C263.411 510.64 263.971 510.08 263.971 509.4V505.04ZM270.673 499.04H277.593C281.673 499.04 283.233 501.4 283.233 504.36V521.68C283.233 524.64 281.673 527.04 277.593 527.04H270.673V499.04ZM275.873 522.04H277.033C277.593 522.04 278.033 521.56 278.033 521V505.04C278.033 504.48 277.593 504 277.033 504H275.873V522.04ZM299.913 508.16H294.713V504.68C294.713 504.12 294.233 503.64 293.673 503.64H293.593C292.993 503.64 292.553 504.12 292.553 504.68V507.52C292.553 508.32 292.873 508.76 293.113 509L293.353 509.2L297.833 512.64C297.833 512.64 299.913 514 299.913 517.2V522.16C299.913 525.04 297.553 527.4 294.673 527.4H292.553C289.673 527.4 287.353 525.04 287.353 522.16V517.2H292.553V521.36C292.553 521.92 292.993 522.4 293.593 522.4H293.673C294.233 522.4 294.713 521.92 294.713 521.36V517.72C294.673 517.56 294.633 516.88 294.073 516.44L289.153 512.64C287.113 511.08 287.353 508.84 287.353 508.84V503.88C287.353 501 289.673 498.68 292.553 498.68H294.673C297.553 498.68 299.913 501 299.913 503.88V508.16ZM311.935 504H306.615V510.52H310.695V515.52H306.615V522.04H311.935V527.04H301.415V499.04H311.935V504ZM322.927 513.12C324.607 513.12 326.007 514.52 326.007 516.24V527H320.807V517.2C320.807 516.32 320.087 515.64 319.207 515.64H318.647V527H313.447V499.04H321.887C324.167 499.04 326.007 500.84 326.007 503.12V509.96C326.007 511.72 324.567 513.12 322.847 513.12H322.927ZM320.807 505.04C320.807 504.48 320.327 504 319.767 504H318.647V510.64H319.567C320.247 510.64 320.807 510.08 320.807 509.4V505.04ZM335.367 499.04H340.327L336.367 527.04H330.687L326.767 499.04H331.687L333.527 512L335.367 499.04ZM352.17 504H346.85V510.52H350.93V515.52H346.85V522.04H352.17V527.04H341.65V499.04H352.17V504ZM363.161 513.12C364.841 513.12 366.241 514.52 366.241 516.24V527H361.041V517.2C361.041 516.32 360.321 515.64 359.441 515.64H358.881V527H353.681V499.04H362.121C364.401 499.04 366.241 500.84 366.241 503.12V509.96C366.241 511.72 364.801 513.12 363.081 513.12H363.161ZM361.041 505.04C361.041 504.48 360.561 504 360.001 504H358.881V510.64H359.801C360.481 510.64 361.041 510.08 361.041 509.4V505.04Z" fill="black"/>
<path fill-rule="evenodd" clip-rule="evenodd" d="M826 136H1215V221.61L1192.93 247H841.345L826.003 267.59L826.003 247H826V136Z" fill="#FDEE0A"/>
<mask id="path-22-inside-5_3444_1506" fill="white">
<path d="M826.006 136H933.67V247.253H826.006V136Z"/>
</mask>
<path d="M826.006 136H933.67V247.253H826.006V136Z" fill="black"/>
<path d="M826.006 136V132.411H822.417V136H826.006ZM826.006 247.253H822.417V250.842H826.006V247.253ZM826.006 139.589H933.67V132.411H826.006V139.589ZM933.67 243.665H826.006V250.842H933.67V243.665ZM829.595 247.253V136H822.417V247.253H829.595Z" fill="#FDEE0A" mask="url(#path-22-inside-5_3444_1506)"/>
<path d="M892.593 193.12C892.494 193.12 892.494 193.218 892.395 193.218C892.494 193.317 892.494 193.317 892.593 193.416C894.27 194.994 895.454 196.869 896.144 199.138C896.539 200.322 896.736 201.308 896.736 202.196V215.81C896.736 222.914 890.915 228.636 883.812 228.636H878.583C871.48 228.636 865.758 222.914 865.758 215.81V205.254H878.583V213.837C878.583 215.219 879.669 216.402 881.05 216.402H881.346C882.727 216.402 883.812 215.219 883.812 213.837V201.209C883.812 199.828 882.727 198.743 881.346 198.743H878.583V187.792H881.346C882.727 187.792 883.812 186.707 883.812 185.326V172.698C883.812 171.317 882.727 170.133 881.346 170.133H881.05C879.669 170.133 878.583 171.317 878.583 172.698V181.281H865.758V170.725C865.758 163.622 871.48 157.801 878.583 157.801H883.812C890.915 157.801 896.736 163.622 896.736 170.725V184.339C896.736 185.129 896.539 186.214 896.144 187.398C895.454 189.568 894.27 191.541 892.593 193.12Z" fill="#FDEE0A"/>
<path d="M956.04 175.84H961.28V183.16C961.28 186.04 958.92 188.4 956.04 188.4H953.92C951.04 188.4 948.72 186.04 948.72 183.16V164.88C948.72 162 951.04 159.68 953.92 159.68H956.04C958.92 159.68 961.28 162 961.28 164.88V170.88H956.04V165.68C956.04 165.12 955.6 164.64 955.04 164.64H954.92C954.36 164.64 953.92 165.12 953.92 165.68V182.36C953.92 182.92 954.36 183.4 954.92 183.4H955.04C955.6 183.4 956.04 182.92 956.04 182.36V175.84ZM962.783 164.88C962.783 162 965.103 159.68 967.983 159.68H970.103C972.983 159.68 975.343 162 975.343 164.88V183.16C975.343 186.04 972.983 188.4 970.103 188.4H967.983C965.103 188.4 962.783 186.04 962.783 183.16V164.88ZM967.983 182.36C967.983 182.92 968.423 183.4 968.983 183.4H969.103C969.663 183.4 970.103 182.92 970.103 182.36V165.68C970.103 165.12 969.663 164.64 969.103 164.64H968.983C968.423 164.64 967.983 165.12 967.983 165.68V182.36ZM984.366 160.04H989.286V188.04H984.366L981.686 177.68V188.04H976.806V160.04H981.326L981.686 161.32L984.366 171.52V160.04ZM998.311 160.04H1003.23V188.04H998.311L995.631 177.68V188.04H990.751V160.04H995.271L995.631 161.32L998.311 171.52V160.04ZM1015.22 165H1009.9V171.52H1013.98V176.52H1009.9V183.04H1015.22V188.04H1004.7V160.04H1015.22V165ZM1023.81 175.84H1029.05V183.16C1029.05 186.04 1026.69 188.4 1023.81 188.4H1021.69C1018.81 188.4 1016.49 186.04 1016.49 183.16V164.88C1016.49 162 1018.81 159.68 1021.69 159.68H1023.81C1026.69 159.68 1029.05 162 1029.05 164.88V170.88H1023.81V165.68C1023.81 165.12 1023.37 164.64 1022.81 164.64H1022.69C1022.13 164.64 1021.69 165.12 1021.69 165.68V182.36C1021.69 182.92 1022.13 183.4 1022.69 183.4H1022.81C1023.37 183.4 1023.81 182.92 1023.81 182.36V175.84ZM1042.48 160.04V165H1038.96V188.04H1033.76V165H1030.24V160.04H1042.48ZM1055.29 160.04H1060.21L1055.97 177.6H1055.93V188.04H1050.73V177.16L1046.61 160.04H1051.49L1052.29 164.08L1053.41 169.68L1054.49 164.08L1055.29 160.04ZM1060.56 164.88C1060.56 162 1062.88 159.68 1065.76 159.68H1067.88C1070.76 159.68 1073.12 162 1073.12 164.88V183.16C1073.12 186.04 1070.76 188.4 1067.88 188.4H1065.76C1062.88 188.4 1060.56 186.04 1060.56 183.16V164.88ZM1065.76 182.36C1065.76 182.92 1066.2 183.4 1066.76 183.4H1066.88C1067.44 183.4 1067.88 182.92 1067.88 182.36V165.68C1067.88 165.12 1067.44 164.64 1066.88 164.64H1066.76C1066.2 164.64 1065.76 165.12 1065.76 165.68V182.36ZM1081.9 160.04H1087.14V183.12C1087.14 186 1084.78 188.36 1081.9 188.36H1079.78C1076.9 188.36 1074.58 186 1074.58 183.12V160.04H1079.78V182.32C1079.78 182.92 1080.22 183.36 1080.78 183.36H1080.9C1081.46 183.36 1081.9 182.92 1081.9 182.32V160.04ZM1098.08 174.12C1099.76 174.12 1101.16 175.52 1101.16 177.24V188H1095.96V178.2C1095.96 177.32 1095.24 176.64 1094.36 176.64H1093.8V188H1088.6V160.04H1097.04C1099.32 160.04 1101.16 161.84 1101.16 164.12V170.96C1101.16 172.72 1099.72 174.12 1098 174.12H1098.08ZM1095.96 166.04C1095.96 165.48 1095.48 165 1094.92 165H1093.8V171.64H1094.72C1095.4 171.64 1095.96 171.08 1095.96 170.4V166.04ZM1105.28 160.04H1112.2C1116.28 160.04 1117.84 162.4 1117.84 165.36V182.68C1117.84 185.64 1116.28 188.04 1112.2 188.04H1105.28V160.04ZM1110.48 183.04H1111.64C1112.2 183.04 1112.64 182.56 1112.64 182V166.04C1112.64 165.48 1112.2 165 1111.64 165H1110.48V183.04ZM1124.55 188.04H1119.35V160.04H1124.55V188.04ZM1138.58 169.16H1133.38V165.68C1133.38 165.12 1132.9 164.64 1132.34 164.64H1132.26C1131.66 164.64 1131.22 165.12 1131.22 165.68V168.52C1131.22 169.32 1131.54 169.76 1131.78 170L1132.02 170.2L1136.5 173.64C1136.5 173.64 1138.58 175 1138.58 178.2V183.16C1138.58 186.04 1136.22 188.4 1133.34 188.4H1131.22C1128.34 188.4 1126.02 186.04 1126.02 183.16V178.2H1131.22V182.36C1131.22 182.92 1131.66 183.4 1132.26 183.4H1132.34C1132.9 183.4 1133.38 182.92 1133.38 182.36V178.72C1133.34 178.56 1133.3 177.88 1132.74 177.44L1127.82 173.64C1125.78 172.08 1126.02 169.84 1126.02 169.84V164.88C1126.02 162 1128.34 159.68 1131.22 159.68H1133.34C1136.22 159.68 1138.58 162 1138.58 164.88V169.16ZM1147.41 175.84H1152.65V183.16C1152.65 186.04 1150.29 188.4 1147.41 188.4H1145.29C1142.41 188.4 1140.09 186.04 1140.09 183.16V164.88C1140.09 162 1142.41 159.68 1145.29 159.68H1147.41C1150.29 159.68 1152.65 162 1152.65 164.88V170.88H1147.41V165.68C1147.41 165.12 1146.97 164.64 1146.41 164.64H1146.29C1145.73 164.64 1145.29 165.12 1145.29 165.68V182.36C1145.29 182.92 1145.73 183.4 1146.29 183.4H1146.41C1146.97 183.4 1147.41 182.92 1147.41 182.36V175.84ZM1154.15 164.88C1154.15 162 1156.47 159.68 1159.35 159.68H1161.47C1164.35 159.68 1166.71 162 1166.71 164.88V183.16C1166.71 186.04 1164.35 188.4 1161.47 188.4H1159.35C1156.47 188.4 1154.15 186.04 1154.15 183.16V164.88ZM1159.35 182.36C1159.35 182.92 1159.79 183.4 1160.35 183.4H1160.47C1161.03 183.4 1161.47 182.92 1161.47 182.36V165.68C1161.47 165.12 1161.03 164.64 1160.47 164.64H1160.35C1159.79 164.64 1159.35 165.12 1159.35 165.68V182.36ZM1177.65 174.12C1179.33 174.12 1180.73 175.52 1180.73 177.24V188H1175.53V178.2C1175.53 177.32 1174.81 176.64 1173.93 176.64H1173.37V188H1168.17V160.04H1176.61C1178.89 160.04 1180.73 161.84 1180.73 164.12V170.96C1180.73 172.72 1179.29 174.12 1177.57 174.12H1177.65ZM1175.53 166.04C1175.53 165.48 1175.05 165 1174.49 165H1173.37V171.64H1174.29C1174.97 171.64 1175.53 171.08 1175.53 170.4V166.04ZM1182.24 160.04H1189.16C1193.24 160.04 1194.8 162.4 1194.8 165.36V182.68C1194.8 185.64 1193.24 188.04 1189.16 188.04H1182.24V160.04ZM1187.44 183.04H1188.6C1189.16 183.04 1189.6 182.56 1189.6 182V166.04C1189.6 165.48 1189.16 165 1188.6 165H1187.44V183.04ZM953.24 223.04H948.72L952.52 195.04H958.72L962.52 223.04H958L957.52 219.4H953.72L953.24 223.04ZM955.6 205.48L954.32 215.08H956.92L955.6 205.48ZM970.571 210.84H975.811V218.16C975.811 221.04 973.451 223.4 970.571 223.4H968.451C965.571 223.4 963.251 221.04 963.251 218.16V199.88C963.251 197 965.571 194.68 968.451 194.68H970.571C973.451 194.68 975.811 197 975.811 199.88V205.88H970.571V200.68C970.571 200.12 970.131 199.64 969.571 199.64H969.451C968.891 199.64 968.451 200.12 968.451 200.68V217.36C968.451 217.92 968.891 218.4 969.451 218.4H969.571C970.131 218.4 970.571 217.92 970.571 217.36V210.84ZM984.634 210.84H989.874V218.16C989.874 221.04 987.514 223.4 984.634 223.4H982.514C979.634 223.4 977.314 221.04 977.314 218.16V199.88C977.314 197 979.634 194.68 982.514 194.68H984.634C987.514 194.68 989.874 197 989.874 199.88V205.88H984.634V200.68C984.634 200.12 984.194 199.64 983.634 199.64H983.514C982.954 199.64 982.514 200.12 982.514 200.68V217.36C982.514 217.92 982.954 218.4 983.514 218.4H983.634C984.194 218.4 984.634 217.92 984.634 217.36V210.84ZM991.376 199.88C991.376 197 993.696 194.68 996.576 194.68H998.696C1001.58 194.68 1003.94 197 1003.94 199.88V218.16C1003.94 221.04 1001.58 223.4 998.696 223.4H996.576C993.696 223.4 991.376 221.04 991.376 218.16V199.88ZM996.576 217.36C996.576 217.92 997.016 218.4 997.576 218.4H997.696C998.256 218.4 998.696 217.92 998.696 217.36V200.68C998.696 200.12 998.256 199.64 997.696 199.64H997.576C997.016 199.64 996.576 200.12 996.576 200.68V217.36ZM1012.72 195.04H1017.96V218.12C1017.96 221 1015.6 223.36 1012.72 223.36H1010.6C1007.72 223.36 1005.4 221 1005.4 218.12V195.04H1010.6V217.32C1010.6 217.92 1011.04 218.36 1011.6 218.36H1011.72C1012.28 218.36 1012.72 217.92 1012.72 217.32V195.04ZM1026.98 195.04H1031.9V223.04H1026.98L1024.3 212.68V223.04H1019.42V195.04H1023.94L1024.3 196.32L1026.98 206.52V195.04ZM1045.61 195.04V200H1042.09V223.04H1036.89V200H1033.37V195.04H1045.61Z" fill="black"/>
<path d="M-67 284H94L507.5 374L824 301L1186.5 449L1739 185H1913.5" stroke="#FDEE0A" stroke-width="8.21383" stroke-dasharray="18.43 24.43"/>
<circle cx="97" cy="285" r="16" fill="#FDEE0A"/>
<circle cx="506" cy="376" r="16" fill="#FDEE0A"/>
<circle cx="826" cy="301" r="16" fill="#FDEE0A"/>
<circle cx="1185" cy="449" r="16" fill="#FDEE0A"/>
<circle cx="1737" cy="185" r="16" fill="#FDEE0A"/>
</svg>
