<svg width="1914" height="619" viewBox="0 0 1914 619" fill="none" xmlns="http://www.w3.org/2000/svg">
<path fill-rule="evenodd" clip-rule="evenodd" d="M1200.29 507H1552V592.421L1529.76 618H1185V507H1185L1185 486.475L1200.29 507Z" fill="#FDEE0A"/>
<mask id="path-2-inside-1_3444_1506" fill="white">
<path d="M1185 618.064H1292.66V506.812H1185V618.064Z"/>
</mask>
<path d="M1185 618.064H1292.66V506.812H1185V618.064Z" fill="black"/>
<path d="M1185 618.064V622.02H1181.04V618.064H1185ZM1185 506.812H1181.04V502.855H1185V506.812ZM1185 614.108H1292.66V622.02H1185V614.108ZM1292.66 510.768H1185V502.855H1292.66V510.768ZM1188.96 506.812V618.064H1181.04V506.812H1188.96Z" fill="#FDEE0A" mask="url(#path-2-inside-1_3444_1506)"/>
<path d="M1255.55 575.361H1260.23V587.868H1255.55V602.768H1243.26V587.868H1224.45V575.361L1241.63 526.638H1244.68H1255.55V575.361ZM1237.17 575.361H1243.26L1243.48 557.525L1237.17 575.361Z" fill="#FDEE0A"/>
<path d="M1317.22 544.024H1323.87V553.325C1323.87 556.985 1320.88 559.983 1317.22 559.983H1314.52C1310.86 559.983 1307.91 556.985 1307.91 553.325V530.098C1307.91 526.439 1310.86 523.491 1314.52 523.491H1317.22C1320.88 523.491 1323.87 526.439 1323.87 530.098V537.722H1317.22V531.115C1317.22 530.403 1316.66 529.793 1315.95 529.793H1315.79C1315.08 529.793 1314.52 530.403 1314.52 531.115V552.309C1314.52 553.02 1315.08 553.63 1315.79 553.63H1315.95C1316.66 553.63 1317.22 553.02 1317.22 552.309V544.024ZM1325.78 530.098C1325.78 526.439 1328.73 523.491 1332.39 523.491H1335.08C1338.74 523.491 1341.74 526.439 1341.74 530.098V553.325C1341.74 556.985 1338.74 559.983 1335.08 559.983H1332.39C1328.73 559.983 1325.78 556.985 1325.78 553.325V530.098ZM1332.39 552.309C1332.39 553.02 1332.95 553.63 1333.66 553.63H1333.81C1334.52 553.63 1335.08 553.02 1335.08 552.309V531.115C1335.08 530.403 1334.52 529.793 1333.81 529.793H1333.66C1332.95 529.793 1332.39 530.403 1332.39 531.115V552.309ZM1353.21 523.949H1359.46V559.526H1353.21L1349.8 546.362V559.526H1343.6V523.949H1349.34L1349.8 525.575L1353.21 538.535V523.949ZM1370.93 523.949H1377.18V559.526H1370.93L1367.52 546.362V559.526H1361.32V523.949H1367.06L1367.52 525.575L1370.93 538.535V523.949ZM1392.41 530.251H1385.65V538.535H1390.83V544.888H1385.65V553.173H1392.41V559.526H1379.04V523.949H1392.41V530.251ZM1403.33 544.024H1409.99V553.325C1409.99 556.985 1406.99 559.983 1403.33 559.983H1400.64C1396.98 559.983 1394.03 556.985 1394.03 553.325V530.098C1394.03 526.439 1396.98 523.491 1400.64 523.491H1403.33C1406.99 523.491 1409.99 526.439 1409.99 530.098V537.722H1403.33V531.115C1403.33 530.403 1402.77 529.793 1402.06 529.793H1401.91C1401.2 529.793 1400.64 530.403 1400.64 531.115V552.309C1400.64 553.02 1401.2 553.63 1401.91 553.63H1402.06C1402.77 553.63 1403.33 553.02 1403.33 552.309V544.024ZM1427.05 523.949V530.251H1422.58V559.526H1415.97V530.251H1411.5V523.949H1427.05ZM1443.33 523.949H1449.58L1444.19 546.261H1444.14V559.526H1437.53V545.702L1432.3 523.949H1438.5L1439.51 529.082L1440.94 536.197L1442.31 529.082L1443.33 523.949ZM1450.02 530.098C1450.02 526.439 1452.96 523.491 1456.62 523.491H1459.32C1462.98 523.491 1465.97 526.439 1465.97 530.098V553.325C1465.97 556.985 1462.98 559.983 1459.32 559.983H1456.62C1452.96 559.983 1450.02 556.985 1450.02 553.325V530.098ZM1456.62 552.309C1456.62 553.02 1457.18 553.63 1457.89 553.63H1458.05C1458.76 553.63 1459.32 553.02 1459.32 552.309V531.115C1459.32 530.403 1458.76 529.793 1458.05 529.793H1457.89C1457.18 529.793 1456.62 530.403 1456.62 531.115V552.309ZM1477.14 523.949H1483.79V553.274C1483.79 556.934 1480.79 559.933 1477.14 559.933H1474.44C1470.78 559.933 1467.83 556.934 1467.83 553.274V523.949H1474.44V552.258C1474.44 553.02 1475 553.579 1475.71 553.579H1475.86C1476.58 553.579 1477.14 553.02 1477.14 552.258V523.949ZM1497.7 541.839C1499.83 541.839 1501.61 543.618 1501.61 545.803V559.475H1495V547.023C1495 545.905 1494.09 545.041 1492.97 545.041H1492.26V559.475H1485.65V523.949H1496.38C1499.27 523.949 1501.61 526.236 1501.61 529.133V537.824C1501.61 540.06 1499.78 541.839 1497.6 541.839H1497.7ZM1495 531.572C1495 530.861 1494.39 530.251 1493.68 530.251H1492.26V538.688H1493.43C1494.29 538.688 1495 537.976 1495 537.112V531.572ZM1307.91 568.949H1316.71C1321.89 568.949 1323.87 571.947 1323.87 575.708V597.715C1323.87 601.476 1321.89 604.526 1316.71 604.526H1307.91V568.949ZM1314.52 598.173H1316C1316.71 598.173 1317.27 597.563 1317.27 596.851V576.572C1317.27 575.861 1316.71 575.251 1316 575.251H1314.52V598.173ZM1332.39 604.526H1325.78V568.949H1332.39V604.526ZM1350.23 575.098V580.943H1343.57V576.115C1343.57 575.403 1343.01 574.793 1342.3 574.793H1342.15C1341.44 574.793 1340.88 575.403 1340.88 576.115V597.309C1340.88 598.02 1341.44 598.63 1342.15 598.63H1342.3C1343.01 598.63 1343.57 598.02 1343.57 597.309V591.921H1342.1V585.568H1350.23V598.325C1350.23 601.985 1347.23 604.983 1343.57 604.983H1340.88C1337.22 604.983 1334.27 601.985 1334.27 598.325V575.098C1334.27 571.439 1337.22 568.491 1340.88 568.491H1343.57C1347.23 568.491 1350.23 571.439 1350.23 575.098ZM1358.7 604.526H1352.09V568.949H1358.7V604.526ZM1376.13 568.949V575.251H1371.66V604.526H1365.05V575.251H1360.58V568.949H1376.13ZM1379.97 604.526H1374.23L1379.05 568.949H1386.93L1391.76 604.526H1386.02L1385.41 599.901H1380.58L1379.97 604.526ZM1382.97 582.214L1381.34 594.412H1384.64L1382.97 582.214ZM1399.49 598.173H1406.25V604.526H1392.89V568.949H1399.49V598.173ZM1418.11 604.526H1411.5V568.949H1418.11V604.526ZM1419.99 568.949H1428.78C1433.96 568.949 1435.95 571.947 1435.95 575.708V597.715C1435.95 601.476 1433.96 604.526 1428.78 604.526H1419.99V568.949ZM1426.59 598.173H1428.07C1428.78 598.173 1429.34 597.563 1429.34 596.851V576.572C1429.34 575.861 1428.78 575.251 1428.07 575.251H1426.59V598.173ZM1451.22 575.251H1444.46V583.535H1449.65V589.888H1444.46V598.173H1451.22V604.526H1437.86V568.949H1451.22V575.251ZM1462.75 568.949H1469V604.526H1462.75L1459.34 591.362V604.526H1453.14V568.949H1458.89L1459.34 570.575L1462.75 583.535V568.949ZM1486.41 568.949V575.251H1481.94V604.526H1475.33V575.251H1470.86V568.949H1486.41ZM1494.94 604.526H1488.33V568.949H1494.94V604.526ZM1512.37 568.949V575.251H1507.9V604.526H1501.29V575.251H1496.82V568.949H1512.37ZM1524.63 568.949H1530.88L1525.49 591.261H1525.44V604.526H1518.83V590.702L1513.6 568.949H1519.8L1520.81 574.082L1522.24 581.197L1523.61 574.082L1524.63 568.949Z" fill="black"/>
<path fill-rule="evenodd" clip-rule="evenodd" d="M1352 0H1731V93.5519L1731 93.5538L1731 148L1706.56 125H1352V0Z" fill="#FDEE0A"/>
<mask id="path-7-inside-2_3444_1506" fill="white">
<path d="M1464 0H1356.34V125.127H1464V0Z"/>
</mask>
<path d="M1464 0H1356.34V125.127H1464V0Z" fill="black"/>
<path d="M1464 0V-4.03636H1468.04V0H1464ZM1464 125.127H1468.04V129.164H1464V125.127ZM1464 4.03636H1356.34V-4.03636H1464V4.03636ZM1356.34 121.091H1464V129.164H1356.34V121.091ZM1459.96 125.127V0H1468.04V125.127H1459.96Z" fill="#FDEE0A" mask="url(#path-7-inside-2_3444_1506)"/>
<path d="M1428.17 39.0353H1407.64V43.3627V46.8024V47.2462V50.0202C1407.64 50.0202 1408.86 47.2462 1415.3 47.2462H1416.08C1422.73 47.2462 1428.17 52.6832 1428.17 59.3407V69.7708H1428.06V90.0762C1428.06 97.1775 1421.62 103.946 1413.64 103.946H1407.75C1398.66 103.946 1393.22 95.846 1393.22 90.0762V78.5365H1407.64V87.1913C1407.64 88.7447 1408.98 90.0762 1410.53 90.0762H1410.75C1412.3 90.0762 1413.64 88.7447 1413.64 87.1913V60.8941C1413.64 60.6722 1413.52 60.5613 1413.52 60.3393C1413.19 59.1188 1412.08 58.2311 1410.75 58.2311H1410.53C1408.98 58.2311 1407.64 59.4517 1407.64 61.116V65.7763V69.4379H1393.22V45.249V43.3627V25.1655H1428.17V39.0353Z" fill="#FDEE0A"/>
<path d="M1475.05 15.9746H1485.17C1491.13 15.9746 1493.41 19.4239 1493.41 23.75V49.064C1493.41 53.3901 1491.13 56.8978 1485.17 56.8978H1475.05V15.9746ZM1482.65 49.5901H1484.35C1485.17 49.5901 1485.81 48.8886 1485.81 48.0701V24.7439C1485.81 23.9254 1485.17 23.2239 1484.35 23.2239H1482.65V49.5901ZM1503.21 56.8978H1495.61V15.9746H1503.21V56.8978ZM1517.54 15.9746H1524.79L1519 56.8978H1510.7L1504.97 15.9746H1512.16L1514.85 34.9162L1517.54 15.9746ZM1542.1 23.2239H1534.32V32.7531H1540.28V40.0609H1534.32V49.5901H1542.1V56.8978H1526.72V15.9746H1542.1V23.2239ZM1555.73 56.8978H1548.13V15.9746H1555.73V56.8978ZM1568.94 15.9746H1576.13V56.8978H1568.94L1565.02 41.7562V56.8978H1557.89V15.9746H1564.5L1565.02 17.8454L1568.94 32.7531V15.9746ZM1596.16 15.9746V23.2239H1591.02V56.8978H1583.42V23.2239H1578.27V15.9746H1596.16ZM1598.08 23.0485C1598.08 18.8393 1601.48 15.4485 1605.68 15.4485H1608.78C1612.99 15.4485 1616.44 18.8393 1616.44 23.0485V49.7655C1616.44 53.9747 1612.99 57.424 1608.78 57.424H1605.68C1601.48 57.424 1598.08 53.9747 1598.08 49.7655V23.0485ZM1605.68 48.5963C1605.68 49.4147 1606.33 50.1163 1607.15 50.1163H1607.32C1608.14 50.1163 1608.78 49.4147 1608.78 48.5963V24.2177C1608.78 23.3993 1608.14 22.6977 1607.32 22.6977H1607.15C1606.33 22.6977 1605.68 23.3993 1605.68 24.2177V48.5963ZM1640.29 15.9746V23.2239H1635.15V56.8978H1627.55V23.2239H1622.41V15.9746H1640.29ZM1653.14 15.9746H1660.8V56.8978H1653.14V40.0609H1650.1V56.8978H1642.5V15.9746H1650.1V32.7531H1653.14V15.9746ZM1678.37 23.2239H1670.6V32.7531H1676.56V40.0609H1670.6V49.5901H1678.37V56.8978H1663V15.9746H1678.37V23.2239ZM1475.05 67.9746H1485.17C1491.13 67.9746 1493.41 71.4239 1493.41 75.75V101.064C1493.41 105.39 1491.13 108.898 1485.17 108.898H1475.05V67.9746ZM1482.65 101.59H1484.35C1485.17 101.59 1485.81 100.889 1485.81 100.07V76.7439C1485.81 75.9254 1485.17 75.2239 1484.35 75.2239H1482.65V101.59ZM1503.21 108.898H1495.61V67.9746H1503.21V108.898ZM1523.72 75.0485V81.7716H1516.07V76.2177C1516.07 75.3993 1515.42 74.6977 1514.6 74.6977H1514.43C1513.61 74.6977 1512.97 75.3993 1512.97 76.2177V100.596C1512.97 101.415 1513.61 102.116 1514.43 102.116H1514.6C1515.42 102.116 1516.07 101.415 1516.07 100.596V94.3993H1514.37V87.0916H1523.72V101.765C1523.72 105.975 1520.28 109.424 1516.07 109.424H1512.97C1508.76 109.424 1505.37 105.975 1505.37 101.765V75.0485C1505.37 70.8393 1508.76 67.4485 1512.97 67.4485H1516.07C1520.28 67.4485 1523.72 70.8393 1523.72 75.0485ZM1533.46 108.898H1525.86V67.9746H1533.46V108.898ZM1553.52 67.9746V75.2239H1548.37V108.898H1540.77V75.2239H1535.63V67.9746H1553.52ZM1557.93 108.898H1551.33L1556.88 67.9746H1565.94L1571.5 108.898H1564.89L1564.19 103.578H1558.63L1557.93 108.898ZM1561.38 83.2331L1559.51 97.2639H1563.31L1561.38 83.2331ZM1580.39 101.59H1588.17V108.898H1572.79V67.9746H1580.39V101.59ZM1600.81 108.898H1594.2L1599.76 67.9746H1608.82L1614.37 108.898H1607.77L1607.06 103.578H1601.51L1600.81 108.898ZM1604.26 83.2331L1602.39 97.2639H1606.19L1604.26 83.2331ZM1629.81 88.5531C1632.26 88.5531 1634.31 90.5993 1634.31 93.1132V108.839H1626.71V94.5162C1626.71 93.2301 1625.66 92.2362 1624.37 92.2362H1623.55V108.839H1615.95V67.9746H1628.29C1631.62 67.9746 1634.31 70.6054 1634.31 73.9377V83.9347C1634.31 86.507 1632.21 88.5531 1629.69 88.5531H1629.81ZM1626.71 76.7439C1626.71 75.9254 1626.01 75.2239 1625.19 75.2239H1623.55V84.9285H1624.9C1625.89 84.9285 1626.71 84.1101 1626.71 83.1162V76.7439ZM1651.88 75.2239H1644.11V84.7531H1650.07V92.0609H1644.11V101.59H1651.88V108.898H1636.51V67.9746H1651.88V75.2239ZM1665.14 67.9746H1672.33V108.898H1665.14L1661.22 93.7562V108.898H1654.09V67.9746H1660.7L1661.22 69.8454L1665.14 84.7531V67.9746ZM1680.51 108.898H1673.9L1679.46 67.9746H1688.52L1694.07 108.898H1687.47L1686.76 103.578H1681.21L1680.51 108.898ZM1683.96 83.2331L1682.09 97.2639H1685.89L1683.96 83.2331Z" fill="black"/>
<path fill-rule="evenodd" clip-rule="evenodd" d="M100 113H519V198.192L495.696 225H117.587L100.001 248.602L100.001 225H100V113Z" fill="#FDEE0A"/>
<mask id="path-12-inside-3_3444_1506" fill="white">
<path d="M100 113H208.321V224.932H100V113Z"/>
</mask>
<path d="M100 113H208.321V224.932H100V113Z" fill="black"/>
<path d="M100 113V109.389H96.3893V113H100ZM100 224.932H96.3893V228.542H100V224.932ZM100 116.611H208.321V109.389H100V116.611ZM208.321 221.321H100V228.542H208.321V221.321ZM103.611 224.932V113H96.3893V224.932H103.611Z" fill="#FDEE0A" mask="url(#path-12-inside-3_3444_1506)"/>
<path d="M139.995 135.37H160.74V204.85H147.836V146.884H139.995V135.37Z" fill="#FDEE0A"/>
<path d="M241.069 168.052C244.209 168.052 246.827 170.669 246.827 173.884V194H237.105V175.679C237.105 174.034 235.759 172.763 234.114 172.763H233.067V194H223.346V141.729H239.124C243.387 141.729 246.827 145.094 246.827 149.357V162.144C246.827 165.434 244.135 168.052 240.919 168.052H241.069ZM237.105 152.946C237.105 151.899 236.208 151.002 235.161 151.002H233.067V163.415H234.787C236.058 163.415 237.105 162.368 237.105 161.097V152.946ZM269.302 151.002H259.357V163.191H266.984V172.538H259.357V184.727H269.302V194.075H249.636V141.729H269.302V151.002ZM295.17 150.778V159.377H285.374V152.273C285.374 151.226 284.552 150.329 283.505 150.329H283.28C282.233 150.329 281.411 151.226 281.411 152.273V183.456C281.411 184.503 282.233 185.4 283.28 185.4H283.505C284.552 185.4 285.374 184.503 285.374 183.456V175.53H283.206V166.182H295.17V184.952C295.17 190.336 290.758 194.748 285.374 194.748H281.411C276.027 194.748 271.69 190.336 271.69 184.952V150.778C271.69 145.394 276.027 141.056 281.411 141.056H285.374C290.758 141.056 295.17 145.394 295.17 150.778ZM307.627 194.075H297.906V141.729H307.627V194.075ZM333.874 158.779H324.153V152.273C324.153 151.226 323.256 150.329 322.209 150.329H322.059C320.937 150.329 320.115 151.226 320.115 152.273V157.583C320.115 159.078 320.713 159.901 321.162 160.349L321.61 160.723L329.986 167.154C329.986 167.154 333.874 169.697 333.874 175.679V184.952C333.874 190.336 329.462 194.748 324.078 194.748H320.115C314.731 194.748 310.394 190.336 310.394 184.952V175.679H320.115V183.456C320.115 184.503 320.937 185.4 322.059 185.4H322.209C323.256 185.4 324.153 184.503 324.153 183.456V176.651C324.078 176.352 324.003 175.081 322.956 174.258L313.759 167.154C309.945 164.238 310.394 160.05 310.394 160.05V150.778C310.394 145.394 314.731 141.056 320.115 141.056H324.078C329.462 141.056 333.874 145.394 333.874 150.778V158.779ZM358.981 141.729V151.002H352.401V194.075H342.679V151.002H336.099V141.729H358.981ZM379.527 168.052C382.668 168.052 385.285 170.669 385.285 173.884V194H375.564V175.679C375.564 174.034 374.218 172.763 372.572 172.763H371.526V194H361.804V141.729H377.583C381.845 141.729 385.285 145.094 385.285 149.357V162.144C385.285 165.434 382.593 168.052 379.377 168.052H379.527ZM375.564 152.946C375.564 151.899 374.666 151.002 373.619 151.002H371.526V163.415H373.245C374.517 163.415 375.564 162.368 375.564 161.097V152.946ZM395.96 194.075H387.51L394.614 141.729H406.204L413.308 194.075H404.858L403.961 187.27H396.857L395.96 194.075ZM400.372 161.247L397.979 179.194H402.839L400.372 161.247ZM433.322 141.729V151.002H426.742V194.075H417.02V151.002H410.44V141.729H433.322ZM445.866 194.075H436.145V141.729H445.866V194.075ZM448.633 150.778C448.633 145.394 452.97 141.056 458.354 141.056H462.317C467.701 141.056 472.113 145.394 472.113 150.778V184.952C472.113 190.336 467.701 194.748 462.317 194.748H458.354C452.97 194.748 448.633 190.336 448.633 184.952V150.778ZM458.354 183.456C458.354 184.503 459.177 185.4 460.223 185.4H460.448C461.495 185.4 462.317 184.503 462.317 183.456V152.273C462.317 151.226 461.495 150.329 460.448 150.329H460.223C459.177 150.329 458.354 151.226 458.354 152.273V183.456ZM488.982 141.729H498.18V194.075H488.982L483.972 174.707V194.075H474.849V141.729H483.299L483.972 144.122L488.982 163.191V141.729Z" fill="black"/>
<path fill-rule="evenodd" clip-rule="evenodd" d="M506.092 439.478L506.092 413L486.483 439.478H70.6577V551.41H481.693L506.098 523.164V439.478H506.092Z" fill="#FDEE0A"/>
<mask id="path-17-inside-4_3444_1506" fill="white">
<path d="M182.309 439.479H74.6448V551.41H182.309V439.479Z"/>
</mask>
<path d="M182.309 439.479H74.6448V551.41H182.309V439.479Z" fill="black"/>
<path d="M182.309 439.479V435.868H185.919V439.479H182.309ZM182.309 551.41H185.919V555.021H182.309V551.41ZM182.309 443.089H74.6448V435.868H182.309V443.089ZM74.6448 547.8H182.309V555.021H74.6448V547.8ZM178.698 551.41V439.479H185.919V551.41H178.698Z" fill="#FDEE0A" mask="url(#path-17-inside-4_3444_1506)"/>
<path d="M137.62 495.894C137.521 496.191 137.421 496.39 137.322 496.688C133.749 504.43 130.374 512.271 126.801 519.914H141.293V531.428H121.243H112.508V519.914C113.302 518.226 114.096 516.44 114.989 514.752C117.868 508.499 120.846 502.147 123.724 495.894C124.518 494.206 125.312 492.519 126.106 490.831C128.29 485.968 128.389 481.203 128.389 475.943C128.389 475.248 127.992 474.553 127.496 474.057C127.297 473.958 127.099 473.858 126.9 473.66C126.602 473.561 126.205 473.461 125.808 473.461H125.61C124.22 473.461 123.029 474.553 123.029 475.943V484.677H110.126V474.057C110.126 466.91 115.883 461.054 123.029 461.054H128.29C135.536 461.054 141.293 466.91 141.293 474.057C141.293 474.057 141.293 487.357 137.62 495.894Z" fill="#FDEE0A"/>
<path d="M198.541 461.521H204.641V488.48C204.641 491.6 202.406 494.068 197.517 494.068H193.838V488.294H197.377C198.029 488.294 198.541 487.735 198.541 487.083V461.521ZM206.388 467.155C206.388 463.802 209.089 461.102 212.441 461.102H214.909C218.261 461.102 221.009 463.802 221.009 467.155V488.434C221.009 491.786 218.261 494.533 214.909 494.533H212.441C209.089 494.533 206.388 491.786 206.388 488.434V467.155ZM212.441 487.502C212.441 488.154 212.953 488.713 213.605 488.713H213.745C214.397 488.713 214.909 488.154 214.909 487.502V468.086C214.909 467.434 214.397 466.875 213.745 466.875H213.605C212.953 466.875 212.441 467.434 212.441 468.086V487.502ZM228.765 494.114H222.712V461.521H228.765V494.114ZM239.288 461.521H245.015V494.114H239.288L236.168 482.055V494.114H230.488V461.521H235.749L236.168 463.011L239.288 474.884V461.521ZM264.015 461.521V467.295H259.918V494.114H253.865V467.295H249.767V461.521H264.015ZM274.247 461.521H280.347V494.114H274.247V480.704H271.826V494.114H265.773V461.521H271.826V474.884H274.247V461.521ZM294.343 467.295H288.15V474.884H292.899V480.704H288.15V488.294H294.343V494.114H282.097V461.521H294.343V467.295ZM313.769 467.155V472.51H307.669V468.086C307.669 467.434 307.157 466.875 306.505 466.875H306.366C305.714 466.875 305.202 467.434 305.202 468.086V487.502C305.202 488.154 305.714 488.713 306.366 488.713H306.505C307.157 488.713 307.669 488.154 307.669 487.502V482.567H306.319V476.747H313.769V488.434C313.769 491.786 311.022 494.533 307.669 494.533H305.202C301.849 494.533 299.148 491.786 299.148 488.434V467.155C299.148 463.802 301.849 461.102 305.202 461.102H307.669C311.022 461.102 313.769 463.802 313.769 467.155ZM329.357 461.521V467.295H325.259V494.114H319.206V467.295H315.109V461.521H329.357ZM343.36 467.295H337.167V474.884H341.917V480.704H337.167V488.294H343.36V494.114H331.114V461.521H343.36V467.295ZM353.367 479.913H359.467V488.434C359.467 491.786 356.72 494.533 353.367 494.533H350.9C347.547 494.533 344.847 491.786 344.847 488.434V467.155C344.847 463.802 347.547 461.102 350.9 461.102H353.367C356.72 461.102 359.467 463.802 359.467 467.155V474.139H353.367V468.086C353.367 467.434 352.855 466.875 352.203 466.875H352.064C351.412 466.875 350.9 467.434 350.9 468.086V487.502C350.9 488.154 351.412 488.713 352.064 488.713H352.203C352.855 488.713 353.367 488.154 353.367 487.502V479.913ZM369.69 461.521H375.79V494.114H369.69V480.704H367.269V494.114H361.216V461.521H367.269V474.884H369.69V461.521ZM381.658 470.787H386.779V487.13C386.779 488.899 387.586 489.784 389.201 489.784C390.039 489.784 390.691 489.536 391.156 489.039C391.653 488.511 391.901 487.689 391.901 486.571V470.787H397.023V494.068H392.367V491.647C391.901 492.454 391.28 493.09 390.504 493.556C389.728 494.021 388.859 494.254 387.897 494.254H386.779V501.518H381.658V470.787ZM405.51 488.294H411.703V494.114H399.457V461.521H405.51V488.294ZM425.708 467.295H419.515V474.884H424.264V480.704H419.515V488.294H425.708V494.114H413.462V461.521H425.708V467.295ZM432.365 494.114H427.103L431.527 461.521H438.744L443.167 494.114H437.906L437.347 489.877H432.923L432.365 494.114ZM435.112 473.674L433.622 484.848H436.648L435.112 473.674ZM455.463 477.911C457.418 477.911 459.048 479.54 459.048 481.543V494.068H452.995V482.66C452.995 481.636 452.157 480.844 451.133 480.844H450.481V494.068H444.428V461.521H454.252C456.906 461.521 459.048 463.616 459.048 466.27V474.232C459.048 476.281 457.372 477.911 455.37 477.911H455.463ZM452.995 468.505C452.995 467.853 452.436 467.295 451.784 467.295H450.481V475.024H451.552C452.343 475.024 452.995 474.372 452.995 473.58V468.505ZM469.597 461.521H475.324V494.114H469.597L466.478 482.055V494.114H460.797V461.521H466.059L466.478 463.011L469.597 474.884V461.521ZM193.838 502.521H201.893C206.643 502.521 208.459 505.268 208.459 508.714V528.875C208.459 532.321 206.643 535.114 201.893 535.114H193.838V502.521ZM199.891 529.294H201.241C201.893 529.294 202.406 528.735 202.406 528.083V509.505C202.406 508.853 201.893 508.295 201.241 508.295H199.891V529.294ZM216.261 535.114H210.208V502.521H216.261V535.114ZM232.604 513.137H226.551V509.086C226.551 508.434 225.992 507.875 225.34 507.875H225.247C224.548 507.875 224.036 508.434 224.036 509.086V512.392C224.036 513.323 224.409 513.835 224.688 514.115L224.967 514.348L230.182 518.352C230.182 518.352 232.604 519.935 232.604 523.66V529.434C232.604 532.786 229.856 535.533 226.504 535.533H224.036C220.684 535.533 217.983 532.786 217.983 529.434V523.66H224.036V528.502C224.036 529.154 224.548 529.713 225.247 529.713H225.34C225.992 529.713 226.551 529.154 226.551 528.502V524.265C226.504 524.079 226.457 523.288 225.806 522.775L220.078 518.352C217.704 516.536 217.983 513.929 217.983 513.929V508.155C217.983 504.802 220.684 502.102 224.036 502.102H226.504C229.856 502.102 232.604 504.802 232.604 508.155V513.137ZM242.873 520.913H248.973V529.434C248.973 532.786 246.226 535.533 242.873 535.533H240.406C237.053 535.533 234.353 532.786 234.353 529.434V508.155C234.353 504.802 237.053 502.102 240.406 502.102H242.873C246.226 502.102 248.973 504.802 248.973 508.155V515.139H242.873V509.086C242.873 508.434 242.361 507.875 241.709 507.875H241.57C240.918 507.875 240.406 508.434 240.406 509.086V528.502C240.406 529.154 240.918 529.713 241.57 529.713H241.709C242.361 529.713 242.873 529.154 242.873 528.502V520.913ZM250.722 508.155C250.722 504.802 253.423 502.102 256.775 502.102H259.243C262.595 502.102 265.343 504.802 265.343 508.155V529.434C265.343 532.786 262.595 535.533 259.243 535.533H256.775C253.423 535.533 250.722 532.786 250.722 529.434V508.155ZM256.775 528.502C256.775 529.154 257.287 529.713 257.939 529.713H258.079C258.731 529.713 259.243 529.154 259.243 528.502V509.086C259.243 508.434 258.731 507.875 258.079 507.875H257.939C257.287 507.875 256.775 508.434 256.775 509.086V528.502ZM278.081 518.911C280.037 518.911 281.667 520.54 281.667 522.543V535.068H275.613V523.66C275.613 522.636 274.775 521.844 273.751 521.844H273.099V535.068H267.046V502.521H276.871C279.525 502.521 281.667 504.616 281.667 507.27V515.232C281.667 517.281 279.99 518.911 277.988 518.911H278.081ZM275.613 509.505C275.613 508.853 275.055 508.295 274.403 508.295H273.099V516.024H274.17C274.962 516.024 275.613 515.372 275.613 514.58V509.505ZM283.416 502.521H291.471C296.22 502.521 298.036 505.268 298.036 508.714V528.875C298.036 532.321 296.22 535.114 291.471 535.114H283.416V502.521ZM289.469 529.294H290.819C291.471 529.294 291.983 528.735 291.983 528.083V509.505C291.983 508.853 291.471 508.295 290.819 508.295H289.469V529.294ZM317.452 513.137H311.399V509.086C311.399 508.434 310.84 507.875 310.188 507.875H310.095C309.397 507.875 308.885 508.434 308.885 509.086V512.392C308.885 513.323 309.257 513.835 309.537 514.115L309.816 514.348L315.031 518.352C315.031 518.352 317.452 519.935 317.452 523.66V529.434C317.452 532.786 314.705 535.533 311.352 535.533H308.885C305.532 535.533 302.832 532.786 302.832 529.434V523.66H308.885V528.502C308.885 529.154 309.397 529.713 310.095 529.713H310.188C310.84 529.713 311.399 529.154 311.399 528.502V524.265C311.352 524.079 311.306 523.288 310.654 522.775L304.927 518.352C302.552 516.536 302.832 513.929 302.832 513.929V508.155C302.832 504.802 305.532 502.102 308.885 502.102H311.352C314.705 502.102 317.452 504.802 317.452 508.155V513.137ZM331.447 508.295H325.254V515.884H330.003V521.704H325.254V529.294H331.447V535.114H319.201V502.521H331.447V508.295ZM344.241 518.911C346.197 518.911 347.827 520.54 347.827 522.543V535.068H341.773V523.66C341.773 522.636 340.935 521.844 339.911 521.844H339.259V535.068H333.206V502.521H343.031C345.685 502.521 347.827 504.616 347.827 507.27V515.232C347.827 517.281 346.15 518.911 344.148 518.911H344.241ZM341.773 509.505C341.773 508.853 341.215 508.295 340.563 508.295H339.259V516.024H340.33C341.122 516.024 341.773 515.372 341.773 514.58V509.505ZM358.722 502.521H364.496L359.886 535.114H353.275L348.712 502.521H354.439L356.581 517.607L358.722 502.521ZM378.282 508.295H372.089V515.884H376.838V521.704H372.089V529.294H378.282V535.114H366.036V502.521H378.282V508.295ZM391.076 518.911C393.032 518.911 394.661 520.54 394.661 522.543V535.068H388.608V523.66C388.608 522.636 387.77 521.844 386.746 521.844H386.094V535.068H380.041V502.521H389.866C392.52 502.521 394.661 504.616 394.661 507.27V515.232C394.661 517.281 392.985 518.911 390.983 518.911H391.076ZM388.608 509.505C388.608 508.853 388.05 508.295 387.398 508.295H386.094V516.024H387.165C387.957 516.024 388.608 515.372 388.608 514.58V509.505Z" fill="black"/>
<path fill-rule="evenodd" clip-rule="evenodd" d="M826 136H1215V221.61L1192.93 247H841.345L826.003 267.59L826.003 247H826V136Z" fill="#FDEE0A"/>
<mask id="path-22-inside-5_3444_1506" fill="white">
<path d="M826.006 136H933.67V247.253H826.006V136Z"/>
</mask>
<path d="M826.006 136H933.67V247.253H826.006V136Z" fill="black"/>
<path d="M826.006 136V132.411H822.417V136H826.006ZM826.006 247.253H822.417V250.842H826.006V247.253ZM826.006 139.589H933.67V132.411H826.006V139.589ZM933.67 243.665H826.006V250.842H933.67V243.665ZM829.595 247.253V136H822.417V247.253H829.595Z" fill="#FDEE0A" mask="url(#path-22-inside-5_3444_1506)"/>
<path d="M892.593 193.12C892.494 193.12 892.494 193.218 892.395 193.218C892.494 193.317 892.494 193.317 892.593 193.416C894.27 194.994 895.454 196.869 896.144 199.138C896.539 200.322 896.736 201.308 896.736 202.196V215.81C896.736 222.914 890.915 228.636 883.812 228.636H878.583C871.48 228.636 865.758 222.914 865.758 215.81V205.254H878.583V213.837C878.583 215.219 879.669 216.402 881.05 216.402H881.346C882.727 216.402 883.812 215.219 883.812 213.837V201.209C883.812 199.828 882.727 198.743 881.346 198.743H878.583V187.792H881.346C882.727 187.792 883.812 186.707 883.812 185.326V172.698C883.812 171.317 882.727 170.133 881.346 170.133H881.05C879.669 170.133 878.583 171.317 878.583 172.698V181.281H865.758V170.725C865.758 163.622 871.48 157.801 878.583 157.801H883.812C890.915 157.801 896.736 163.622 896.736 170.725V184.339C896.736 185.129 896.539 186.214 896.144 187.398C895.454 189.568 894.27 191.541 892.593 193.12Z" fill="#FDEE0A"/>
<path d="M958.216 171.549H964.874V180.85C964.874 184.51 961.875 187.508 958.216 187.508H955.522C951.863 187.508 948.915 184.51 948.915 180.85V157.623C948.915 153.964 951.863 151.016 955.522 151.016H958.216C961.875 151.016 964.874 153.964 964.874 157.623V165.247H958.216V158.64C958.216 157.928 957.657 157.318 956.945 157.318H956.793C956.081 157.318 955.522 157.928 955.522 158.64V179.834C955.522 180.545 956.081 181.155 956.793 181.155H956.945C957.657 181.155 958.216 180.545 958.216 179.834V171.549ZM966.783 157.623C966.783 153.964 969.731 151.016 973.39 151.016H976.084C979.743 151.016 982.742 153.964 982.742 157.623V180.85C982.742 184.51 979.743 187.508 976.084 187.508H973.39C969.731 187.508 966.783 184.51 966.783 180.85V157.623ZM973.39 179.834C973.39 180.545 973.949 181.155 974.661 181.155H974.813C975.525 181.155 976.084 180.545 976.084 179.834V158.64C976.084 157.928 975.525 157.318 974.813 157.318H974.661C973.949 157.318 973.39 157.928 973.39 158.64V179.834ZM994.207 151.473H1000.46V187.051H994.207L990.802 173.887V187.051H984.601V151.473H990.345L990.802 153.1L994.207 166.06V151.473ZM1011.93 151.473H1018.18V187.051H1011.93L1008.52 173.887V187.051H1002.32V151.473H1008.06L1008.52 153.1L1011.93 166.06V151.473ZM1033.41 157.776H1026.65V166.06H1031.83V172.413H1026.65V180.698H1033.41V187.051H1020.04V151.473H1033.41V157.776ZM1044.33 171.549H1050.99V180.85C1050.99 184.51 1047.99 187.508 1044.33 187.508H1041.64C1037.98 187.508 1035.03 184.51 1035.03 180.85V157.623C1035.03 153.964 1037.98 151.016 1041.64 151.016H1044.33C1047.99 151.016 1050.99 153.964 1050.99 157.623V165.247H1044.33V158.64C1044.33 157.928 1043.77 157.318 1043.06 157.318H1042.91C1042.2 157.318 1041.64 157.928 1041.64 158.64V179.834C1041.64 180.545 1042.2 181.155 1042.91 181.155H1043.06C1043.77 181.155 1044.33 180.545 1044.33 179.834V171.549ZM1068.05 151.473V157.776H1063.58V187.051H1056.97V157.776H1052.5V151.473H1068.05ZM1084.33 151.473H1090.58L1085.19 173.786H1085.14V187.051H1078.53V173.226L1073.3 151.473H1079.5L1080.51 156.607L1081.94 163.722L1083.31 156.607L1084.33 151.473ZM1091.02 157.623C1091.02 153.964 1093.96 151.016 1097.62 151.016H1100.32C1103.98 151.016 1106.97 153.964 1106.97 157.623V180.85C1106.97 184.51 1103.98 187.508 1100.32 187.508H1097.62C1093.96 187.508 1091.02 184.51 1091.02 180.85V157.623ZM1097.62 179.834C1097.62 180.545 1098.18 181.155 1098.89 181.155H1099.05C1099.76 181.155 1100.32 180.545 1100.32 179.834V158.64C1100.32 157.928 1099.76 157.318 1099.05 157.318H1098.89C1098.18 157.318 1097.62 157.928 1097.62 158.64V179.834ZM1118.14 151.473H1124.79V180.799C1124.79 184.459 1121.79 187.457 1118.14 187.457H1115.44C1111.78 187.457 1108.83 184.459 1108.83 180.799V151.473H1115.44V179.783C1115.44 180.545 1116 181.104 1116.71 181.104H1116.86C1117.58 181.104 1118.14 180.545 1118.14 179.783V151.473ZM1138.7 169.364C1140.83 169.364 1142.61 171.143 1142.61 173.328V187H1136V174.548C1136 173.43 1135.09 172.566 1133.97 172.566H1133.26V187H1126.65V151.473H1137.38C1140.27 151.473 1142.61 153.761 1142.61 156.658V165.349C1142.61 167.585 1140.78 169.364 1138.6 169.364H1138.7ZM1136 159.097C1136 158.386 1135.39 157.776 1134.68 157.776H1133.26V166.213H1134.43C1135.29 166.213 1136 165.501 1136 164.637V159.097ZM948.915 196.473H957.708C962.892 196.473 964.874 199.472 964.874 203.233V225.24C964.874 229.001 962.892 232.051 957.708 232.051H948.915V196.473ZM955.522 225.698H956.996C957.708 225.698 958.267 225.088 958.267 224.376V204.097C958.267 203.386 957.708 202.776 956.996 202.776H955.522V225.698ZM973.39 232.051H966.783V196.473H973.39V232.051ZM991.229 208.062H984.622V203.64C984.622 202.928 984.012 202.318 983.301 202.318H983.199C982.437 202.318 981.878 202.928 981.878 203.64V207.248C981.878 208.265 982.284 208.824 982.589 209.129L982.894 209.383L988.586 213.754C988.586 213.754 991.229 215.482 991.229 219.548V225.85C991.229 229.51 988.231 232.508 984.571 232.508H981.878C978.218 232.508 975.27 229.51 975.27 225.85V219.548H981.878V224.834C981.878 225.545 982.437 226.155 983.199 226.155H983.301C984.012 226.155 984.622 225.545 984.622 224.834V220.209C984.571 220.005 984.52 219.141 983.809 218.582L977.557 213.754C974.965 211.772 975.27 208.926 975.27 208.926V202.623C975.27 198.964 978.218 196.016 981.878 196.016H984.571C988.231 196.016 991.229 198.964 991.229 202.623V208.062ZM1002.44 216.549H1009.1V225.85C1009.1 229.51 1006.1 232.508 1002.44 232.508H999.746C996.086 232.508 993.138 229.51 993.138 225.85V202.623C993.138 198.964 996.086 196.016 999.746 196.016H1002.44C1006.1 196.016 1009.1 198.964 1009.1 202.623V210.247H1002.44V203.64C1002.44 202.928 1001.88 202.318 1001.17 202.318H1001.02C1000.3 202.318 999.746 202.928 999.746 203.64V224.834C999.746 225.545 1000.3 226.155 1001.02 226.155H1001.17C1001.88 226.155 1002.44 225.545 1002.44 224.834V216.549ZM1011.01 202.623C1011.01 198.964 1013.95 196.016 1017.61 196.016H1020.31C1023.97 196.016 1026.97 198.964 1026.97 202.623V225.85C1026.97 229.51 1023.97 232.508 1020.31 232.508H1017.61C1013.95 232.508 1011.01 229.51 1011.01 225.85V202.623ZM1017.61 224.834C1017.61 225.545 1018.17 226.155 1018.88 226.155H1019.04C1019.75 226.155 1020.31 225.545 1020.31 224.834V203.64C1020.31 202.928 1019.75 202.318 1019.04 202.318H1018.88C1018.17 202.318 1017.61 202.928 1017.61 203.64V224.834ZM1040.87 214.364C1043.01 214.364 1044.78 216.143 1044.78 218.328V232H1038.18V219.548C1038.18 218.43 1037.26 217.566 1036.14 217.566H1035.43V232H1028.82V196.473H1039.55C1042.45 196.473 1044.78 198.761 1044.78 201.658V210.349C1044.78 212.585 1042.95 214.364 1040.77 214.364H1040.87ZM1038.18 204.097C1038.18 203.386 1037.57 202.776 1036.86 202.776H1035.43V211.213H1036.6C1037.47 211.213 1038.18 210.501 1038.18 209.637V204.097ZM1046.69 196.473H1055.49C1060.67 196.473 1062.65 199.472 1062.65 203.233V225.24C1062.65 229.001 1060.67 232.051 1055.49 232.051H1046.69V196.473ZM1053.3 225.698H1054.77C1055.49 225.698 1056.04 225.088 1056.04 224.376V204.097C1056.04 203.386 1055.49 202.776 1054.77 202.776H1053.3V225.698ZM1073.63 232.051H1067.89L1072.71 196.473H1080.59L1085.42 232.051H1079.68L1079.07 227.426H1074.24L1073.63 232.051ZM1076.63 209.739L1075 221.937H1078.31L1076.63 209.739ZM1095.65 216.549H1102.31V225.85C1102.31 229.51 1099.31 232.508 1095.65 232.508H1092.96C1089.3 232.508 1086.35 229.51 1086.35 225.85V202.623C1086.35 198.964 1089.3 196.016 1092.96 196.016H1095.65C1099.31 196.016 1102.31 198.964 1102.31 202.623V210.247H1095.65V203.64C1095.65 202.928 1095.09 202.318 1094.38 202.318H1094.23C1093.52 202.318 1092.96 202.928 1092.96 203.64V224.834C1092.96 225.545 1093.52 226.155 1094.23 226.155H1094.38C1095.09 226.155 1095.65 225.545 1095.65 224.834V216.549ZM1113.52 216.549H1120.18V225.85C1120.18 229.51 1117.18 232.508 1113.52 232.508H1110.83C1107.17 232.508 1104.22 229.51 1104.22 225.85V202.623C1104.22 198.964 1107.17 196.016 1110.83 196.016H1113.52C1117.18 196.016 1120.18 198.964 1120.18 202.623V210.247H1113.52V203.64C1113.52 202.928 1112.96 202.318 1112.25 202.318H1112.1C1111.38 202.318 1110.83 202.928 1110.83 203.64V224.834C1110.83 225.545 1111.38 226.155 1112.1 226.155H1112.25C1112.96 226.155 1113.52 225.545 1113.52 224.834V216.549ZM1122.09 202.623C1122.09 198.964 1125.03 196.016 1128.69 196.016H1131.39C1135.05 196.016 1138.05 198.964 1138.05 202.623V225.85C1138.05 229.51 1135.05 232.508 1131.39 232.508H1128.69C1125.03 232.508 1122.09 229.51 1122.09 225.85V202.623ZM1128.69 224.834C1128.69 225.545 1129.25 226.155 1129.96 226.155H1130.12C1130.83 226.155 1131.39 225.545 1131.39 224.834V203.64C1131.39 202.928 1130.83 202.318 1130.12 202.318H1129.96C1129.25 202.318 1128.69 202.928 1128.69 203.64V224.834ZM1149.21 196.473H1155.86V225.799C1155.86 229.459 1152.87 232.457 1149.21 232.457H1146.51C1142.85 232.457 1139.9 229.459 1139.9 225.799V196.473H1146.51V224.783C1146.51 225.545 1147.07 226.104 1147.78 226.104H1147.94C1148.65 226.104 1149.21 225.545 1149.21 224.783V196.473ZM1167.33 196.473H1173.58V232.051H1167.33L1163.92 218.887V232.051H1157.72V196.473H1163.47L1163.92 198.1L1167.33 211.06V196.473ZM1190.99 196.473V202.776H1186.52V232.051H1179.92V202.776H1175.44V196.473H1190.99Z" fill="black"/>
<path d="M-67 284H94L507.5 374L824 301L1186.5 449L1739 185H1913.5" stroke="#FDEE0A" stroke-width="8.21383" stroke-dasharray="18.43 24.43"/>
<circle cx="97" cy="285" r="16" fill="#FDEE0A"/>
<circle cx="506" cy="376" r="16" fill="#FDEE0A"/>
<circle cx="826" cy="301" r="16" fill="#FDEE0A"/>
<circle cx="1185" cy="449" r="16" fill="#FDEE0A"/>
<circle cx="1737" cy="185" r="16" fill="#FDEE0A"/>
</svg>
