<svg width="1920" height="842" viewBox="0 0 1920 842" fill="none" xmlns="http://www.w3.org/2000/svg">
<path d="M-8.5 755.5C3.52323 753.98 120.51 605.505 123.369 596.35C134.192 561.697 142.627 528.206 144.952 491.76C146.891 461.37 148.683 431.276 150.868 400.911C153.706 361.449 152.5 320.253 157.262 281.126C161.491 246.387 165.019 215.301 175.488 182.033C194.863 120.462 272.636 69.3134 328.806 49.3151C376.247 32.4244 429.76 28.8257 479.726 27.8152C538.703 26.6225 598.306 34.7044 656.066 46.7287C730.411 62.2055 801.442 91.9734 876.371 104.601C919.96 111.946 973.964 111.831 1005.39 148.57C1025.29 171.841 1039.29 198.444 1054.47 224.871C1063.12 239.928 1071.88 254.905 1083.57 267.709C1100.1 285.823 1141.55 284.653 1162.54 282.419C1220.4 276.261 1277.93 258.175 1332.65 238.773C1385.76 219.942 1440.02 204.397 1493 185.266C1534.16 170.401 1577.03 165.224 1620.74 167.645C1647.77 169.143 1674.96 172.428 1701.95 174.758C1726.38 176.867 1753.38 179.289 1773.26 195.45C1797.8 215.406 1814.96 243.612 1794.68 271.427C1723.62 368.891 1614.58 414.491 1503.39 449.084C1404.54 479.84 1298.17 498.335 1206.99 550.117C1166.57 573.069 1139.56 612.288 1126.89 657.132C1118.44 687.046 1142.57 705.69 1170.22 709.184C1220.42 715.529 1266.55 677.184 1305.79 651.959C1354.68 620.531 1395.93 581.294 1440.72 544.298C1476.97 514.356 1515.89 495.218 1563.03 512.775C1599.98 526.541 1641.5 555.53 1665.98 586.651C1695.82 624.571 1701.6 675.629 1722.1 718.56C1747.96 772.736 1787.06 817.229 1845.04 837.214C1859.76 842.288 1989.74 814.984 1995.5 797.5" stroke="#FDEE0A" stroke-width="7.59969" stroke-linecap="round"/>
<path d="M156.847 202.491L223.972 241.677V320.049L156.847 359.235L89.7231 320.049V241.677L156.847 202.491Z" fill="#FDEE0A"/>
<path d="M715.849 0.149902L782.974 39.3358V117.708L715.849 156.893L648.725 117.708V39.3358L715.849 0.149902Z" fill="#FDEE0A"/>
<path d="M1088.83 223.391L1155.95 262.577V340.948L1088.83 380.134L1021.71 340.948V262.577L1088.83 223.391Z" fill="#FDEE0A"/>
<path d="M1771.84 121.745L1838.97 160.931V239.303L1771.84 278.488L1704.72 239.303V160.931L1771.84 121.745Z" fill="#FDEE0A"/>
<path d="M1679.77 556.823L1746.9 596.009V674.381L1679.77 713.567L1612.65 674.381V596.009L1679.77 556.823Z" fill="#FDEE0A"/>
<path d="M169.49 246.303V315.391H154.883V260.167H154.478L138.656 270.085V257.131L155.76 246.303H169.49Z" fill="black"/>
<path d="M1089.43 337.234C1084.4 337.234 1079.91 336.369 1075.97 334.637C1072.06 332.883 1068.97 330.476 1066.7 327.418C1064.45 324.337 1063.29 320.783 1063.22 316.758H1077.93C1078.02 318.444 1078.57 319.929 1079.58 321.211C1080.62 322.47 1081.99 323.448 1083.7 324.145C1085.41 324.843 1087.33 325.191 1089.47 325.191C1091.69 325.191 1093.66 324.798 1095.37 324.01C1097.08 323.223 1098.42 322.133 1099.39 320.738C1100.35 319.344 1100.84 317.736 1100.84 315.914C1100.84 314.07 1100.32 312.44 1099.28 311.023C1098.27 309.583 1096.81 308.459 1094.9 307.649C1093.01 306.84 1090.76 306.435 1088.15 306.435H1081.71V295.707H1088.15C1090.36 295.707 1092.3 295.325 1093.99 294.56C1095.7 293.796 1097.02 292.739 1097.97 291.389C1098.91 290.017 1099.39 288.421 1099.39 286.599C1099.39 284.867 1098.97 283.349 1098.14 282.045C1097.33 280.718 1096.18 279.683 1094.7 278.941C1093.23 278.199 1091.53 277.828 1089.57 277.828C1087.59 277.828 1085.78 278.188 1084.14 278.908C1082.5 279.605 1081.18 280.606 1080.19 281.91C1079.2 283.214 1078.67 284.744 1078.6 286.498H1064.61C1064.67 282.517 1065.81 279.009 1068.01 275.973C1070.22 272.937 1073.18 270.564 1076.92 268.855C1080.67 267.123 1084.91 266.257 1089.64 266.257C1094.4 266.257 1098.58 267.123 1102.15 268.855C1105.73 270.586 1108.5 272.925 1110.48 275.871C1112.49 278.795 1113.48 282.079 1113.45 285.722C1113.48 289.59 1112.27 292.817 1109.84 295.404C1107.44 297.99 1104.3 299.632 1100.43 300.329V300.869C1105.51 301.521 1109.38 303.286 1112.04 306.165C1114.71 309.021 1116.04 312.597 1116.02 316.893C1116.04 320.828 1114.9 324.325 1112.61 327.384C1110.34 330.442 1107.2 332.849 1103.2 334.603C1099.19 336.357 1094.61 337.234 1089.43 337.234Z" fill="black"/>
<path d="M1680.07 670.667C1675.31 670.667 1671.06 669.79 1667.32 668.036C1663.61 666.282 1660.67 663.864 1658.48 660.783C1656.3 657.702 1655.17 654.171 1655.08 650.19H1669.25C1669.4 652.867 1670.53 655.037 1672.62 656.701C1674.71 658.365 1677.2 659.198 1680.07 659.198C1682.37 659.198 1684.39 658.692 1686.15 657.679C1687.92 656.645 1689.31 655.217 1690.3 653.395C1691.31 651.551 1691.81 649.437 1691.81 647.053C1691.81 644.624 1691.3 642.488 1690.26 640.644C1689.25 638.799 1687.84 637.36 1686.05 636.326C1684.25 635.291 1682.19 634.763 1679.87 634.74C1677.85 634.74 1675.88 635.156 1673.97 635.988C1672.08 636.82 1670.61 637.956 1669.55 639.395L1656.56 637.068L1659.83 600.635H1702.07V612.577H1671.88L1670.09 629.882H1670.49C1671.71 628.173 1673.54 626.756 1675.99 625.632C1678.44 624.507 1681.19 623.945 1684.22 623.945C1688.38 623.945 1692.1 624.923 1695.36 626.88C1698.62 628.837 1701.19 631.524 1703.08 634.942C1704.97 638.338 1705.9 642.252 1705.88 646.682C1705.9 651.337 1704.82 655.475 1702.64 659.096C1700.48 662.695 1697.46 665.528 1693.57 667.597C1689.7 669.644 1685.2 670.667 1680.07 670.667Z" fill="black"/>
<path d="M1744.93 222.5V210.996L1773.77 165.556H1783.69V181.479H1777.82L1759.63 210.254V210.794H1800.62V222.5H1744.93ZM1778.09 234.644V218.991L1778.36 213.897V165.556H1792.05V234.644H1778.09Z" fill="black"/>
<path d="M691.606 113.049V102.524L716.199 79.7532C718.29 77.7292 720.044 75.9075 721.461 74.2882C722.9 72.669 723.991 71.0835 724.733 69.5317C725.476 67.9574 725.847 66.2595 725.847 64.4378C725.847 62.4137 725.386 60.6708 724.463 59.209C723.541 57.7247 722.282 56.5889 720.685 55.8018C719.088 54.9922 717.278 54.5874 715.254 54.5874C713.14 54.5874 711.296 55.0147 709.722 55.8693C708.147 56.7239 706.933 57.9495 706.078 59.5463C705.224 61.1431 704.796 63.0434 704.796 65.2474H690.931C690.931 60.727 691.955 56.8026 694.001 53.4741C696.048 50.1457 698.915 47.5706 702.604 45.7489C706.292 43.9273 710.542 43.0164 715.355 43.0164C720.303 43.0164 724.61 43.8935 728.275 45.6477C731.964 47.3794 734.831 49.7858 736.878 52.8669C738.924 55.948 739.948 59.4788 739.948 63.4595C739.948 66.0683 739.43 68.6434 738.396 71.1847C737.384 73.726 735.573 76.5484 732.965 79.652C730.356 82.7331 726.679 86.4326 721.933 90.7506L711.847 100.635V101.107H740.858V113.049H691.606Z" fill="black"/>
</svg>
